# xmcd
#
# Track frame offsets:
#	150
#	18406
#	38938
#	54504
#	71538
#	86255
#	103709
#	124980
#	138772
#	157166
#	173197
#	187239
#	204478
#	217164
#	236553
#	254540
#	273649
#	298385
#	313819
#	330513
#
# Disc length: 4638 seconds
#
# Revision: 0
# Processed by: cddbd v1.4PL0 Copyright (c) Steve Scherf et al.
# Submitted via: dBpowerAMP V4.0
#
DISCID=3d121c14
DTITLE=Bonnie Rait - Collection
DYEAR=1900
DGENRE=Country
TTITLE0=Finest lovin' man
TTITLE1=Give it up of let me go
TTITLE2=Woman be wise
TTITLE3=Under the falling set
TTITLE4=Love me like a man
TTITLE5=Love has no pride
TTITLE6=I feel the same
TTITLE7=Guilty
TTITLE8=Angel from Montgomery
TTITLE9=What is succes
TTITLE10=My first night alone without you
TTITLE11=Sugar mama
TTITLE12=Louise
TTITLE13=About to make me leave home
TTITLE14=Runaway
TTITLE15=The glow
TTITLE16=Wild for you baby
TTITLE17=Willya Woxtcha
TTITLE18=True love is hard to find
TTITLE19=No way to treat a lady
EXTD=At Heinemans
EXTT0=
EXTT1=
EXTT2=
EXTT3=
EXTT4=
EXTT5=
EXTT6=
EXTT7=
EXTT8=
EXTT9=
EXTT10=
EXTT11=
EXTT12=
EXTT13=
EXTT14=
EXTT15=
EXTT16=
EXTT17=
EXTT18=
EXTT19=
PLAYORDER=
